# xmcd
#
# Track frame offsets: 
#        150
#        14222
#        25802
#        36820
#        55135
#        68672
#        80257
#        91260
#        105545
#        117720
#        126975
#        136922
#        149910
#        165645
#        174617
#        186307
#        199392
#        207585
#        218380
#        227680
#        237760
#        247890
#
# Disc length: 3443 seconds
#
# Revision: 0
# Processed by: cddbd v1.5.2PL0 Copyright (c) Steve Scherf et al.
# Submitted via: ExactAudioCopy v1.0b1
#
DISCID=420d7116
DTITLE=Aretha Franklin - Soul Sister - Take It Like You Give It
DYEAR=2008
DGENRE=R&B
TTITLE0=Until You Were Gone
TTITLE1=You Made Me Love You
TTITLE2=Follow Your Heart
TTITLE3=Ol' Man River
TTITLE4=Sweet Bitter Love
TTITLE5=A Mother's Love
TTITLE6=Swanee
TTITLE7=(No, No) I'm Losing You
TTITLE8=Take A Look
TTITLE9=Can't You Just See Me
TTITLE10=Cry Like A Baby
TTITLE11=Why Was I Born
TTITLE12=I May Never Get To Heaven
TTITLE13=Tighten Up Your Tie, Button Up Your Jacket
TTITLE14=My Little Heart Went To Loveland
TTITLE15=Lee Cross
TTITLE16=Take It Like You Give It
TTITLE17=Only The One You Love
TTITLE18=Deeper
TTITLE19=Remember Me
TTITLE20=Land Of Dreams
TTITLE21=A Little Bit Of Soul
EXTD=
EXTT0=
EXTT1=
EXTT2=
EXTT3=
EXTT4=
EXTT5=
EXTT6=
EXTT7=
EXTT8=
EXTT9=
EXTT10=
EXTT11=
EXTT12=
EXTT13=
EXTT14=
EXTT15=
EXTT16=
EXTT17=
EXTT18=
EXTT19=
EXTT20=
EXTT21=
PLAYORDER=
